<mxfile host="app.diagrams.net" modified="2022-03-12T05:57:10.422Z" agent="5.0 (Windows NT 10.0; Win64; x64) AppleWebKit/537.36 (KHTML, like Gecko) Chrome/99.0.4844.51 Safari/537.36" etag="I3nKugg37c65PU5RY_RU" version="17.1.0" type="github">
  <diagram id="7FXctQVF9y2-pSssTNo2" name="第 1 页">
    <mxGraphModel dx="782" dy="436" grid="1" gridSize="10" guides="1" tooltips="1" connect="1" arrows="1" fold="1" page="1" pageScale="1" pageWidth="827" pageHeight="1169" math="0" shadow="0">
      <root>
        <mxCell id="0" />
        <mxCell id="1" parent="0" />
        <mxCell id="31w1OQKGr-nNWZjjiKNI-1" value="分区1" style="text;html=1;strokeColor=none;fillColor=none;align=center;verticalAlign=middle;whiteSpace=wrap;rounded=0;" vertex="1" parent="1">
          <mxGeometry x="60" y="107.5" width="60" height="30" as="geometry" />
        </mxCell>
        <mxCell id="31w1OQKGr-nNWZjjiKNI-2" value="分区2" style="text;html=1;strokeColor=none;fillColor=none;align=center;verticalAlign=middle;whiteSpace=wrap;rounded=0;" vertex="1" parent="1">
          <mxGeometry x="60" y="165" width="60" height="30" as="geometry" />
        </mxCell>
        <mxCell id="31w1OQKGr-nNWZjjiKNI-3" value="分区3" style="text;html=1;strokeColor=none;fillColor=none;align=center;verticalAlign=middle;whiteSpace=wrap;rounded=0;" vertex="1" parent="1">
          <mxGeometry x="60" y="235" width="60" height="30" as="geometry" />
        </mxCell>
        <mxCell id="31w1OQKGr-nNWZjjiKNI-4" value="1" style="rounded=0;whiteSpace=wrap;html=1;" vertex="1" parent="1">
          <mxGeometry x="160" y="105" width="40" height="35" as="geometry" />
        </mxCell>
        <mxCell id="31w1OQKGr-nNWZjjiKNI-7" value="2" style="rounded=0;whiteSpace=wrap;html=1;" vertex="1" parent="1">
          <mxGeometry x="200" y="105" width="40" height="35" as="geometry" />
        </mxCell>
        <mxCell id="31w1OQKGr-nNWZjjiKNI-8" value="3" style="rounded=0;whiteSpace=wrap;html=1;" vertex="1" parent="1">
          <mxGeometry x="240" y="105" width="40" height="35" as="geometry" />
        </mxCell>
        <mxCell id="31w1OQKGr-nNWZjjiKNI-9" value="4" style="rounded=0;whiteSpace=wrap;html=1;" vertex="1" parent="1">
          <mxGeometry x="280" y="105" width="40" height="35" as="geometry" />
        </mxCell>
        <mxCell id="31w1OQKGr-nNWZjjiKNI-10" value="5" style="rounded=0;whiteSpace=wrap;html=1;" vertex="1" parent="1">
          <mxGeometry x="320" y="105" width="40" height="35" as="geometry" />
        </mxCell>
        <mxCell id="31w1OQKGr-nNWZjjiKNI-11" value="6" style="rounded=0;whiteSpace=wrap;html=1;" vertex="1" parent="1">
          <mxGeometry x="360" y="105" width="40" height="35" as="geometry" />
        </mxCell>
        <mxCell id="31w1OQKGr-nNWZjjiKNI-12" value="7" style="rounded=0;whiteSpace=wrap;html=1;" vertex="1" parent="1">
          <mxGeometry x="400" y="105" width="40" height="35" as="geometry" />
        </mxCell>
        <mxCell id="31w1OQKGr-nNWZjjiKNI-13" value="8" style="rounded=0;whiteSpace=wrap;html=1;" vertex="1" parent="1">
          <mxGeometry x="440" y="105" width="40" height="35" as="geometry" />
        </mxCell>
        <mxCell id="31w1OQKGr-nNWZjjiKNI-14" value="9" style="rounded=0;whiteSpace=wrap;html=1;" vertex="1" parent="1">
          <mxGeometry x="480" y="105" width="40" height="35" as="geometry" />
        </mxCell>
        <mxCell id="31w1OQKGr-nNWZjjiKNI-15" value="10" style="rounded=0;whiteSpace=wrap;html=1;" vertex="1" parent="1">
          <mxGeometry x="520" y="105" width="40" height="35" as="geometry" />
        </mxCell>
        <mxCell id="31w1OQKGr-nNWZjjiKNI-16" value="11" style="rounded=0;whiteSpace=wrap;html=1;" vertex="1" parent="1">
          <mxGeometry x="560" y="105" width="40" height="35" as="geometry" />
        </mxCell>
        <mxCell id="31w1OQKGr-nNWZjjiKNI-17" value="1" style="rounded=0;whiteSpace=wrap;html=1;" vertex="1" parent="1">
          <mxGeometry x="160" y="160" width="40" height="35" as="geometry" />
        </mxCell>
        <mxCell id="31w1OQKGr-nNWZjjiKNI-18" value="2" style="rounded=0;whiteSpace=wrap;html=1;" vertex="1" parent="1">
          <mxGeometry x="200" y="160" width="40" height="35" as="geometry" />
        </mxCell>
        <mxCell id="31w1OQKGr-nNWZjjiKNI-19" value="3" style="rounded=0;whiteSpace=wrap;html=1;" vertex="1" parent="1">
          <mxGeometry x="240" y="160" width="40" height="35" as="geometry" />
        </mxCell>
        <mxCell id="31w1OQKGr-nNWZjjiKNI-20" value="4" style="rounded=0;whiteSpace=wrap;html=1;" vertex="1" parent="1">
          <mxGeometry x="280" y="160" width="40" height="35" as="geometry" />
        </mxCell>
        <mxCell id="31w1OQKGr-nNWZjjiKNI-21" value="5" style="rounded=0;whiteSpace=wrap;html=1;" vertex="1" parent="1">
          <mxGeometry x="320" y="160" width="40" height="35" as="geometry" />
        </mxCell>
        <mxCell id="31w1OQKGr-nNWZjjiKNI-22" value="6" style="rounded=0;whiteSpace=wrap;html=1;" vertex="1" parent="1">
          <mxGeometry x="360" y="160" width="40" height="35" as="geometry" />
        </mxCell>
        <mxCell id="31w1OQKGr-nNWZjjiKNI-23" value="7" style="rounded=0;whiteSpace=wrap;html=1;" vertex="1" parent="1">
          <mxGeometry x="400" y="160" width="40" height="35" as="geometry" />
        </mxCell>
        <mxCell id="31w1OQKGr-nNWZjjiKNI-24" value="8" style="rounded=0;whiteSpace=wrap;html=1;" vertex="1" parent="1">
          <mxGeometry x="440" y="160" width="40" height="35" as="geometry" />
        </mxCell>
        <mxCell id="31w1OQKGr-nNWZjjiKNI-25" value="9" style="rounded=0;whiteSpace=wrap;html=1;" vertex="1" parent="1">
          <mxGeometry x="480" y="160" width="40" height="35" as="geometry" />
        </mxCell>
        <mxCell id="31w1OQKGr-nNWZjjiKNI-26" value="10" style="rounded=0;whiteSpace=wrap;html=1;" vertex="1" parent="1">
          <mxGeometry x="520" y="160" width="40" height="35" as="geometry" />
        </mxCell>
        <mxCell id="31w1OQKGr-nNWZjjiKNI-27" value="11" style="rounded=0;whiteSpace=wrap;html=1;" vertex="1" parent="1">
          <mxGeometry x="560" y="160" width="40" height="35" as="geometry" />
        </mxCell>
        <mxCell id="31w1OQKGr-nNWZjjiKNI-51" value="1" style="rounded=0;whiteSpace=wrap;html=1;" vertex="1" parent="1">
          <mxGeometry x="160" y="230" width="40" height="35" as="geometry" />
        </mxCell>
        <mxCell id="31w1OQKGr-nNWZjjiKNI-52" value="2" style="rounded=0;whiteSpace=wrap;html=1;" vertex="1" parent="1">
          <mxGeometry x="200" y="230" width="40" height="35" as="geometry" />
        </mxCell>
        <mxCell id="31w1OQKGr-nNWZjjiKNI-53" value="3" style="rounded=0;whiteSpace=wrap;html=1;" vertex="1" parent="1">
          <mxGeometry x="240" y="230" width="40" height="35" as="geometry" />
        </mxCell>
        <mxCell id="31w1OQKGr-nNWZjjiKNI-54" value="4" style="rounded=0;whiteSpace=wrap;html=1;" vertex="1" parent="1">
          <mxGeometry x="280" y="230" width="40" height="35" as="geometry" />
        </mxCell>
        <mxCell id="31w1OQKGr-nNWZjjiKNI-55" value="5" style="rounded=0;whiteSpace=wrap;html=1;" vertex="1" parent="1">
          <mxGeometry x="320" y="230" width="40" height="35" as="geometry" />
        </mxCell>
        <mxCell id="31w1OQKGr-nNWZjjiKNI-56" value="6" style="rounded=0;whiteSpace=wrap;html=1;" vertex="1" parent="1">
          <mxGeometry x="360" y="230" width="40" height="35" as="geometry" />
        </mxCell>
        <mxCell id="31w1OQKGr-nNWZjjiKNI-57" value="7" style="rounded=0;whiteSpace=wrap;html=1;" vertex="1" parent="1">
          <mxGeometry x="400" y="230" width="40" height="35" as="geometry" />
        </mxCell>
        <mxCell id="31w1OQKGr-nNWZjjiKNI-58" value="8" style="rounded=0;whiteSpace=wrap;html=1;" vertex="1" parent="1">
          <mxGeometry x="440" y="230" width="40" height="35" as="geometry" />
        </mxCell>
        <mxCell id="31w1OQKGr-nNWZjjiKNI-59" value="9" style="rounded=0;whiteSpace=wrap;html=1;" vertex="1" parent="1">
          <mxGeometry x="480" y="230" width="40" height="35" as="geometry" />
        </mxCell>
        <mxCell id="31w1OQKGr-nNWZjjiKNI-60" value="10" style="rounded=0;whiteSpace=wrap;html=1;" vertex="1" parent="1">
          <mxGeometry x="520" y="230" width="40" height="35" as="geometry" />
        </mxCell>
        <mxCell id="31w1OQKGr-nNWZjjiKNI-61" value="11" style="rounded=0;whiteSpace=wrap;html=1;" vertex="1" parent="1">
          <mxGeometry x="560" y="230" width="40" height="35" as="geometry" />
        </mxCell>
        <mxCell id="31w1OQKGr-nNWZjjiKNI-62" value="12" style="rounded=0;whiteSpace=wrap;html=1;" vertex="1" parent="1">
          <mxGeometry x="600" y="230" width="40" height="35" as="geometry" />
        </mxCell>
        <mxCell id="31w1OQKGr-nNWZjjiKNI-64" value="&lt;font style=&quot;font-size: 18px&quot;&gt;主题&lt;/font&gt;" style="text;html=1;strokeColor=none;fillColor=none;align=center;verticalAlign=middle;whiteSpace=wrap;rounded=0;" vertex="1" parent="1">
          <mxGeometry x="340" y="50" width="60" height="30" as="geometry" />
        </mxCell>
      </root>
    </mxGraphModel>
  </diagram>
</mxfile>
